<svg width="150" height="32" viewBox="0 0 150 32" fill="none" xmlns="http://www.w3.org/2000/svg">
<rect width="150" height="32" rx="2" fill="#111B47"/>
<path d="M32.3643 17.3018V21H30.6348V11.0469H34.4424C35.5544 11.0469 36.4362 11.3363 37.0879 11.915C37.7441 12.4938 38.0723 13.2594 38.0723 14.2119C38.0723 15.1872 37.751 15.946 37.1084 16.4883C36.4704 17.0306 35.5749 17.3018 34.4219 17.3018H32.3643ZM32.3643 15.9141H34.4424C35.0576 15.9141 35.527 15.7705 35.8506 15.4834C36.1742 15.1917 36.3359 14.7725 36.3359 14.2256C36.3359 13.6878 36.1719 13.2594 35.8438 12.9404C35.5156 12.6169 35.0645 12.4505 34.4902 12.4414H32.3643V15.9141ZM43.9102 20.2754C43.4225 20.8496 42.7298 21.1367 41.832 21.1367C41.0299 21.1367 40.4215 20.902 40.0068 20.4326C39.5967 19.9632 39.3916 19.2842 39.3916 18.3955V13.6035H41.0527V18.375C41.0527 19.3138 41.4424 19.7832 42.2217 19.7832C43.0283 19.7832 43.5729 19.4938 43.8555 18.915V13.6035H45.5166V21H43.9512L43.9102 20.2754ZM51.0811 15.1211C50.8623 15.0846 50.6367 15.0664 50.4043 15.0664C49.6432 15.0664 49.1305 15.3581 48.8662 15.9414V21H47.2051V13.6035H48.791L48.832 14.4307C49.2331 13.7881 49.7891 13.4668 50.5 13.4668C50.737 13.4668 50.9329 13.4987 51.0879 13.5625L51.0811 15.1211ZM55.0322 19.8105C55.4469 19.8105 55.791 19.6898 56.0645 19.4482C56.3379 19.2067 56.4837 18.9082 56.502 18.5527H58.0674C58.0492 19.013 57.9056 19.4437 57.6367 19.8447C57.3678 20.2412 57.0033 20.5557 56.543 20.7881C56.0827 21.0205 55.5859 21.1367 55.0527 21.1367C54.0182 21.1367 53.1979 20.8018 52.5918 20.1318C51.9857 19.4619 51.6826 18.5368 51.6826 17.3564V17.1855C51.6826 16.0599 51.9834 15.1598 52.585 14.4854C53.1865 13.8063 54.0068 13.4668 55.0459 13.4668C55.9255 13.4668 56.641 13.7243 57.1924 14.2393C57.7484 14.7497 58.04 15.4219 58.0674 16.2559H56.502C56.4837 15.832 56.3379 15.4834 56.0645 15.21C55.7956 14.9365 55.4515 14.7998 55.0322 14.7998C54.4945 14.7998 54.0798 14.9958 53.7881 15.3877C53.4964 15.7751 53.3483 16.3652 53.3438 17.1582V17.4248C53.3438 18.2269 53.4873 18.8262 53.7744 19.2227C54.0661 19.6146 54.4854 19.8105 55.0322 19.8105ZM60.959 14.4102C61.5013 13.7812 62.1872 13.4668 63.0166 13.4668C64.5934 13.4668 65.3932 14.3669 65.416 16.167V21H63.7549V16.2285C63.7549 15.7181 63.6432 15.3581 63.4199 15.1484C63.2012 14.9342 62.8776 14.8271 62.4492 14.8271C61.7839 14.8271 61.2871 15.1234 60.959 15.7158V21H59.2979V10.5H60.959V14.4102ZM71.5205 21C71.4476 20.8587 71.3838 20.6286 71.3291 20.3096C70.8005 20.861 70.1533 21.1367 69.3877 21.1367C68.6449 21.1367 68.0387 20.9248 67.5693 20.501C67.0999 20.0771 66.8652 19.5531 66.8652 18.9287C66.8652 18.1403 67.1569 17.5365 67.7402 17.1172C68.3281 16.6934 69.1667 16.4814 70.2559 16.4814H71.2744V15.9961C71.2744 15.6133 71.1673 15.3079 70.9531 15.0801C70.7389 14.8477 70.4131 14.7314 69.9756 14.7314C69.5973 14.7314 69.2874 14.8271 69.0459 15.0186C68.8044 15.2054 68.6836 15.4447 68.6836 15.7363H67.0225C67.0225 15.3307 67.1569 14.9525 67.4258 14.6016C67.6947 14.2461 68.0592 13.9681 68.5195 13.7676C68.9844 13.5671 69.5016 13.4668 70.0713 13.4668C70.9372 13.4668 71.6276 13.6855 72.1426 14.123C72.6576 14.556 72.9219 15.1667 72.9355 15.9551V19.291C72.9355 19.9564 73.029 20.4873 73.2158 20.8838V21H71.5205ZM69.6953 19.8037C70.0234 19.8037 70.3311 19.724 70.6182 19.5645C70.9098 19.4049 71.1286 19.1908 71.2744 18.9219V17.5273H70.3789C69.7637 17.5273 69.3011 17.6344 68.9912 17.8486C68.6813 18.0628 68.5264 18.3659 68.5264 18.7578C68.5264 19.0768 68.6312 19.332 68.8408 19.5234C69.055 19.7103 69.3398 19.8037 69.6953 19.8037ZM78.8213 18.9902C78.8213 18.694 78.6982 18.4684 78.4521 18.3135C78.2106 18.1585 77.8073 18.0218 77.2422 17.9033C76.6771 17.7848 76.2054 17.6344 75.8271 17.4521C74.9977 17.0511 74.583 16.4701 74.583 15.709C74.583 15.071 74.8519 14.5378 75.3896 14.1094C75.9274 13.681 76.611 13.4668 77.4404 13.4668C78.3245 13.4668 79.0378 13.6855 79.5801 14.123C80.127 14.5605 80.4004 15.1279 80.4004 15.8252H78.7393C78.7393 15.5062 78.6208 15.2419 78.3838 15.0322C78.1468 14.818 77.8324 14.7109 77.4404 14.7109C77.0758 14.7109 76.7773 14.7952 76.5449 14.9639C76.3171 15.1325 76.2031 15.3581 76.2031 15.6406C76.2031 15.8958 76.3102 16.0941 76.5244 16.2354C76.7386 16.3766 77.1715 16.5202 77.8232 16.666C78.4749 16.8073 78.9854 16.9782 79.3545 17.1787C79.7282 17.3747 80.0039 17.6117 80.1816 17.8896C80.3639 18.1676 80.4551 18.5049 80.4551 18.9014C80.4551 19.5667 80.1794 20.1068 79.6279 20.5215C79.0765 20.9316 78.3542 21.1367 77.4609 21.1367C76.8548 21.1367 76.3148 21.0273 75.8408 20.8086C75.3669 20.5898 74.9977 20.2891 74.7334 19.9062C74.4691 19.5234 74.3369 19.111 74.3369 18.6689H75.9502C75.973 19.0609 76.1211 19.3639 76.3945 19.5781C76.668 19.7878 77.0303 19.8926 77.4814 19.8926C77.9189 19.8926 78.2516 19.8105 78.4795 19.6465C78.7074 19.4779 78.8213 19.2591 78.8213 18.9902ZM85.165 21.1367C84.1123 21.1367 83.2578 20.8063 82.6016 20.1455C81.9499 19.4801 81.624 18.596 81.624 17.4932V17.2881C81.624 16.5498 81.7653 15.8913 82.0479 15.3125C82.335 14.7292 82.736 14.2757 83.251 13.9521C83.766 13.6286 84.3402 13.4668 84.9736 13.4668C85.9808 13.4668 86.7578 13.7881 87.3047 14.4307C87.8561 15.0732 88.1318 15.9824 88.1318 17.1582V17.8281H83.2988C83.349 18.4388 83.5518 18.9219 83.9072 19.2773C84.2673 19.6328 84.7184 19.8105 85.2607 19.8105C86.0218 19.8105 86.6416 19.5029 87.1201 18.8877L88.0156 19.7422C87.7194 20.1842 87.3229 20.5283 86.8262 20.7744C86.334 21.016 85.7803 21.1367 85.165 21.1367ZM84.9668 14.7998C84.5111 14.7998 84.1419 14.9593 83.8594 15.2783C83.5814 15.5973 83.4036 16.0417 83.3262 16.6113H86.4912V16.4883C86.4548 15.9323 86.3066 15.513 86.0469 15.2305C85.7871 14.9434 85.4271 14.7998 84.9668 14.7998ZM100.97 21H99.2402L94.8037 13.9385V21H93.0742V11.0469H94.8037L99.2539 18.1357V11.0469H100.97V21ZM102.542 17.2334C102.542 16.5088 102.686 15.8571 102.973 15.2783C103.26 14.695 103.663 14.2484 104.183 13.9385C104.702 13.624 105.299 13.4668 105.974 13.4668C106.972 13.4668 107.781 13.7881 108.4 14.4307C109.025 15.0732 109.362 15.9255 109.412 16.9873L109.419 17.377C109.419 18.1061 109.278 18.7578 108.995 19.332C108.717 19.9062 108.316 20.3506 107.792 20.665C107.272 20.9795 106.671 21.1367 105.987 21.1367C104.944 21.1367 104.107 20.7904 103.479 20.0977C102.854 19.4004 102.542 18.473 102.542 17.3154V17.2334ZM104.203 17.377C104.203 18.138 104.36 18.735 104.675 19.168C104.989 19.5964 105.427 19.8105 105.987 19.8105C106.548 19.8105 106.983 19.5918 107.293 19.1543C107.607 18.7168 107.765 18.0765 107.765 17.2334C107.765 16.486 107.603 15.8936 107.279 15.4561C106.96 15.0186 106.525 14.7998 105.974 14.7998C105.431 14.7998 105.001 15.0163 104.682 15.4492C104.363 15.8776 104.203 16.5202 104.203 17.377ZM117.321 18.71L118.497 13.6035H120.117L118.101 21H116.733L115.147 15.9209L113.589 21H112.222L110.198 13.6035H111.818L113.015 18.6553L114.532 13.6035H115.783L117.321 18.71Z" fill="white"/>
</svg>
